<?xml version="1.0" encoding="utf-8"?>
<!-- Generator: Adobe Illustrator 13.0.0, SVG Export Plug-In . SVG Version: 6.00 Build 14948)  -->
<!DOCTYPE svg PUBLIC "-//W3C//DTD SVG 1.1//EN" "http://www.w3.org/Graphics/SVG/1.1/DTD/svg11.dtd">
<svg version="1.1" id="Layer_1" xmlns="http://www.w3.org/2000/svg" xmlns:xlink="http://www.w3.org/1999/xlink" x="0px" y="0px"
	 width="29.139px" height="21.711px" viewBox="0 0 29.139 21.711" enable-background="new 0 0 29.139 21.711" xml:space="preserve">
<path fill="none" stroke="#000000" stroke-width="1.2197" stroke-miterlimit="2.6131" d="M18.252,0v11.09 M0.996,10.622v11.089"/>
<path fill="none" stroke="#FFFFFF" stroke-width="1.2197" stroke-linejoin="round" stroke-miterlimit="2.6131" d="M4.902,6.912
	c2.364,0,4.292,1.928,4.292,4.293c0,2.363-1.928,4.291-4.292,4.291c-2.364,0-4.292-1.928-4.292-4.291
	C0.61,8.84,2.538,6.912,4.902,6.912L4.902,6.912z M14.281,5.96c2.363,0,4.293,1.928,4.293,4.292c0,2.365-1.93,4.292-4.293,4.292
	c-2.364,0-4.292-1.928-4.292-4.292C9.989,7.888,11.917,5.96,14.281,5.96L14.281,5.96z"/>
<path fill="none" stroke="#000000" stroke-width="1.2197" stroke-linejoin="round" stroke-miterlimit="2.6131" d="M5.314,6.5
	c2.364,0,4.292,1.928,4.292,4.292s-1.928,4.292-4.292,4.292s-4.292-1.928-4.292-4.292S2.951,6.5,5.314,6.5L5.314,6.5z M13.96,6.438
	c2.364,0,4.292,1.928,4.292,4.292s-1.928,4.292-4.292,4.292s-4.292-1.928-4.292-4.292S11.597,6.438,13.96,6.438L13.96,6.438z"/>
<line fill="none" stroke="#000000" stroke-width="1.22" stroke-miterlimit="2.6131" x1="20.436" y1="0.073" x2="20.436" y2="15.742"/>
<polyline fill="none" stroke="#000000" stroke-width="1.2197" stroke-miterlimit="2.6131" points="22.395,14.4 27.961,11.033 
	22.395,7.666 "/>
<line fill="none" stroke="#FFFFFF" stroke-width="1.2197" stroke-miterlimit="2.6131" x1="22.305" y1="5.082" x2="22.305" y2="16.172"/>
</svg>
