<?xml version="1.0" encoding="UTF-8" standalone="no"?>
<!-- Created with Inkscape (http://www.inkscape.org/) -->

<svg
   version="1.1"
   id="svg1"
   width="48.817333"
   height="39.12109"
   viewBox="0 0 48.817333 39.121089"
   xmlns="http://www.w3.org/2000/svg"
   xmlns:svg="http://www.w3.org/2000/svg">
  <defs
     id="defs1" />
  <g
     id="g1"
     transform="translate(-383.09067,-180.8711)">
    <g
       id="g2"
       aria-label="e&#10;−&#10;(x−µ)&#10;2"
       transform="matrix(1.3333333,0,0,1.3333333,383.09067,198.656)">
      <path
         id="path2"
         d="m 1.8626641,-2.2966875 c 0.2929687,0 1.03125,-0.023437 1.5234375,-0.234375 0.703125,-0.2929687 0.75,-0.890625 0.75,-1.0195312 0,-0.4453125 -0.3867188,-0.8554688 -1.0664063,-0.8554688 -1.1132812,0 -2.61328124,0.9726563 -2.61328124,2.7070313 0,1.0195312 0.58593754,1.80468745 1.57031254,1.80468745 1.4179687,0 2.2617187,-1.0546875 2.2617187,-1.17187495 0,-0.058594 -0.070312,-0.1289063 -0.1289062,-0.1289063 -0.046875,0 -0.070312,0.023437 -0.1289063,0.09375 -0.7851562,0.99609375 -1.875,0.99609375 -1.9921875,0.99609375 -0.7734375,0 -0.8671875,-0.84375 -0.8671875,-1.16015625 0,-0.1171875 0.011719,-0.4335937 0.1640625,-1.03125 z m -0.46875,-0.2226562 c 0.3867187,-1.5117188 1.4179687,-1.6640625 1.6757812,-1.6640625 0.46875,0 0.7382813,0.2929687 0.7382813,0.6328125 0,1.03125 -1.59375,1.03125 -2.0039063,1.03125 z m 0,0"
         style="fill:#000000;fill-opacity:1;fill-rule:nonzero;stroke:none" />
      <path
         id="path3"
         d="m 9.8314141,-6.0847734 c 0.1054687,0 0.2695309,0 0.2695309,-0.1757813 0,-0.1757812 -0.1523434,-0.1757812 -0.2695309,-0.1757812 H 5.6712578 c -0.1054687,0 -0.28125,0 -0.28125,0.1757812 0,0.1757813 0.1640625,0.1757813 0.28125,0.1757813 z m 0,0"
         style="fill:#000000;fill-opacity:1;fill-rule:nonzero;stroke:none" />
      <path
         id="path4"
         d="m 14.252313,-11.630672 c 0,0 0.02344,-0.02344 0.02344,-0.04687 0,-0.02344 -0.01172,-0.07031 -0.09375,-0.07031 -0.09375,0 -1.371094,0.796875 -1.371094,2.4960934 0,1.6875 1.277344,2.484375 1.371094,2.484375 0.08203,0 0.09375,-0.046875 0.09375,-0.070312 0,-0.035156 -0.02344,-0.046875 -0.04687,-0.058594 -0.878906,-0.703125 -1.042969,-1.7109375 -1.042969,-2.3554687 0,-1.2187507 0.574219,-2.0273437 1.066407,-2.3789067 z m 0,0"
         style="fill:#000000;fill-opacity:1;fill-rule:nonzero;stroke:none" />
      <path
         id="path5"
         d="m 17.852898,-9.9666094 c -0.234375,0.070312 -0.234375,0.2929688 -0.234375,0.2929688 0,0.09375 0.05859,0.2109375 0.234375,0.2109375 0.128907,0 0.304688,-0.1171875 0.304688,-0.3398438 0,-0.2929691 -0.328125,-0.4101561 -0.597656,-0.4101561 -0.316407,0 -0.527344,0.210937 -0.632813,0.3398436 -0.164062,-0.2812496 -0.480469,-0.3398436 -0.65625,-0.3398436 -0.621094,0 -0.984375,0.5859374 -0.984375,0.7734374 0,0.070312 0.08203,0.070312 0.105469,0.070312 0.04687,0 0.09375,0 0.105469,-0.058594 0.152343,-0.4921875 0.5625,-0.6093754 0.75,-0.6093754 0.164062,0 0.351562,0.070313 0.351562,0.3281254 0,0.1289063 -0.08203,0.46875 -0.257812,1.1367188 -0.07031,0.28125 -0.304688,0.4453125 -0.515625,0.4453125 -0.03516,0 -0.175782,0 -0.304688,-0.082031 0.234375,-0.070312 0.234375,-0.2695312 0.234375,-0.28125 0,-0.1523437 -0.117187,-0.2109375 -0.222656,-0.2109375 -0.128906,0 -0.304688,0.09375 -0.304688,0.3398438 0,0.3046875 0.328125,0.4101562 0.585938,0.4101562 0.269531,0 0.503906,-0.1640625 0.621094,-0.3398437 0.199218,0.2929687 0.515625,0.3398437 0.667968,0.3398437 0.632813,0 0.984375,-0.5976562 0.984375,-0.7734375 0,-0.070312 -0.08203,-0.070312 -0.105468,-0.070312 -0.08203,0 -0.09375,0.023437 -0.105469,0.070312 -0.152344,0.4453125 -0.527344,0.5976563 -0.75,0.5976563 -0.152344,0 -0.351563,-0.046875 -0.351563,-0.328125 0,-0.058594 0,-0.09375 0.03516,-0.2695313 0.08203,-0.3515625 0.222656,-0.9023437 0.257812,-0.984375 0.07031,-0.1289062 0.234375,-0.3281247 0.480469,-0.3281247 0.02344,0 0.1875,0 0.304687,0.070313 z m 0,0"
         style="fill:#000000;fill-opacity:1;fill-rule:nonzero;stroke:none" />
      <path
         id="path6"
         d="m 23.08532,-9.1111406 c 0.08203,0 0.210938,0 0.210938,-0.140625 0,-0.140625 -0.128906,-0.140625 -0.210938,-0.140625 h -3.375 c -0.08203,0 -0.210937,0 -0.210937,0.140625 0,0.140625 0.128906,0.140625 0.210937,0.140625 z m 0,0"
         style="fill:#000000;fill-opacity:1;fill-rule:nonzero;stroke:none" />
      <path
         id="path7"
         d="m 24.59118,-7.2244219 c -0.02344,0.082031 -0.02344,0.1054688 -0.02344,0.1171875 0,0.1171875 0.09375,0.1757813 0.1875,0.1757813 0.105469,0 0.210938,-0.058594 0.257813,-0.2226563 0.08203,-0.328125 0.03516,-0.140625 0.117187,-0.46875 l 0.117188,-0.4804687 c 0.1875,0.1171875 0.421875,0.1523437 0.609375,0.1523437 0.316406,0 0.574218,-0.1523437 0.796875,-0.375 0.09375,0.3046875 0.421875,0.375 0.585937,0.375 0.199219,0 0.339844,-0.1171875 0.445313,-0.28125 0.128906,-0.1992187 0.199218,-0.4570312 0.199218,-0.4921875 0,-0.070312 -0.09375,-0.070312 -0.105468,-0.070312 -0.09375,0 -0.09375,0.023437 -0.128907,0.1054688 -0.08203,0.375 -0.210937,0.5625 -0.386718,0.5625 -0.140625,0 -0.199219,-0.1054688 -0.199219,-0.2578125 0,-0.1054688 0.152344,-0.7148438 0.351562,-1.4765625 0.02344,-0.082031 0.02344,-0.09375 0.02344,-0.1171875 0,-0.1171874 -0.09375,-0.1757804 -0.1875,-0.1757804 -0.199219,0 -0.234375,0.1640616 -0.269531,0.3164054 -0.05859,0.2109375 -0.05859,0.2226562 -0.117188,0.421875 -0.04687,0.2109375 -0.117187,0.4804687 -0.152344,0.6445312 -0.03516,0.1289063 -0.03516,0.140625 -0.117187,0.2460938 -0.164063,0.1992187 -0.398438,0.3984375 -0.714844,0.3984375 -0.269531,0 -0.480469,-0.1054688 -0.480469,-0.4570313 0,-0.1171875 0.02344,-0.2226562 0.05859,-0.3632812 0.04687,-0.2226563 0.05859,-0.2578125 0.105469,-0.4453125 l 0.09375,-0.3398438 c 0.02344,-0.1054687 0.07031,-0.2812501 0.07031,-0.3046871 0,-0.08203 -0.07031,-0.175781 -0.1875,-0.175781 -0.199218,0 -0.246093,0.1875 -0.257812,0.2460931 z m 0,0"
         style="fill:#000000;fill-opacity:1;fill-rule:nonzero;stroke:none" />
      <path
         id="path8"
         d="m 30.277703,-9.2517656 c 0,-1.6875004 -1.277344,-2.4960934 -1.382812,-2.4960934 -0.07031,0 -0.07031,0.05859 -0.07031,0.07031 0,0.01172 0,0.03516 0.02344,0.07031 0.75,0.585937 1.042968,1.453125 1.042968,2.3554684 0,0.4453125 -0.08203,0.9140625 -0.246093,1.3242187 -0.246094,0.5625 -0.550782,0.84375 -0.796875,1.0429688 -0.01172,0 -0.02344,0.035156 -0.02344,0.046875 0,0.011719 0,0.070312 0.07031,0.070312 0.105468,0 1.382812,-0.796875 1.382812,-2.484375 z m 3.682617,-1.7314454 h -0.210937 c -0.01172,0.09375 -0.05859,0.398438 -0.140625,0.457031 -0.03516,0.02344 -0.457031,0.02344 -0.527344,0.02344 h -0.984375 c 0.328125,-0.246094 0.703125,-0.515625 0.996094,-0.714844 0.457031,-0.316406 0.867187,-0.597656 0.867187,-1.125 0,-0.644531 -0.597656,-0.996094 -1.3125,-0.996094 -0.667968,0 -1.160156,0.386719 -1.160156,0.878907 0,0.257812 0.210938,0.304687 0.28125,0.304687 0.140625,0 0.292969,-0.09375 0.292969,-0.292969 0,-0.1875 -0.128906,-0.28125 -0.28125,-0.292968 0.140625,-0.234375 0.433594,-0.375 0.761719,-0.375 0.480468,0 0.890625,0.28125 0.890625,0.773437 0,0.421875 -0.292969,0.738281 -0.679688,1.054688 l -1.207031,1.03125 c -0.04687,0.04687 -0.05859,0.04687 -0.05859,0.08203 v 0.152344 h 2.308594 z m 0,0"
         style="fill:#000000;fill-opacity:1;fill-rule:nonzero;stroke:none" />
    </g>
    <path
       id="path9"
       d="M 0,0 H 22.858"
       style="fill:none;stroke:#000000;stroke-width:0.339;stroke-linecap:butt;stroke-linejoin:miter;stroke-miterlimit:10;stroke-dasharray:none;stroke-opacity:1"
       transform="matrix(1.3333333,0,0,-1.3333333,399.172,190.31333)" />
    <g
       id="g9"
       aria-label="2σ&#10;2"
       transform="matrix(1.3333333,0,0,1.3333333,406.732,197.22667)">
      <path
         id="path10"
         d="M 2.9285391,-0.96101563 H 2.7176016 c -0.011719,0.09375 -0.058594,0.3984375 -0.140625,0.45703125 -0.035156,0.0234375 -0.4570313,0.0234375 -0.5273438,0.0234375 h -0.984375 c 0.328125,-0.24609375 0.703125,-0.515625 0.9960938,-0.71484372 0.4570312,-0.3164063 0.8671875,-0.5976563 0.8671875,-1.125 0,-0.6445313 -0.5976563,-0.9960938 -1.3125,-0.9960938 -0.66796879,0 -1.16015629,0.3867188 -1.16015629,0.8789063 0,0.2578125 0.2109375,0.3046875 0.28125,0.3046875 0.140625,0 0.29296879,-0.09375 0.29296879,-0.2929688 0,-0.1875 -0.12890629,-0.28125 -0.28125004,-0.2929687 0.140625,-0.234375 0.43359374,-0.375 0.76171874,-0.375 0.4804688,0 0.890625,0.28125 0.890625,0.7734375 0,0.421875 -0.2929687,0.7382812 -0.6796875,1.0546875 l -1.20703124,1.03124997 c -0.046875,0.046875 -0.0585937,0.046875 -0.0585937,0.0820313 V -7.8125e-5 H 2.7644766 Z m 0,0"
         style="fill:#000000;fill-opacity:1;fill-rule:nonzero;stroke:none" />
      <path
         id="path11"
         d="m 6.8250234,-1.7696094 c 0.082031,0 0.140625,0 0.2109375,-0.046875 0.023437,-0.023437 0.070312,-0.09375 0.070312,-0.1757812 0,-0.1523438 -0.140625,-0.1523438 -0.2226562,-0.1523438 H 5.4187734 c -0.84375,0 -1.5117187,0.75 -1.5117187,1.34765627 0,0.52734375 0.4335937,0.85546875 0.984375,0.85546875 0.7148437,0 1.4765625,-0.5625 1.4765625,-1.30078122 0,-0.1992188 -0.058594,-0.375 -0.1640625,-0.5273438 z m -1.921875,1.65234377 c -0.2226562,0 -0.5859375,-0.09375 -0.5859375,-0.55078125 0,-0.15234375 0.070312,-1.10156252 1.03125,-1.10156252 0.3632813,0 0.5976563,0.140625 0.5976563,0.4804688 0,0.51562497 -0.375,1.17187497 -1.0429688,1.17187497 z m 0,0"
         style="fill:#000000;fill-opacity:1;fill-rule:nonzero;stroke:none" />
      <path
         id="path12"
         d="m 10.557445,-2.4287891 h -0.210937 c -0.01172,0.09375 -0.05859,0.3984375 -0.140625,0.4570313 -0.03516,0.023437 -0.4570314,0.023437 -0.5273439,0.023437 h -0.984375 c 0.328125,-0.2460938 0.703125,-0.515625 0.9960937,-0.7148438 0.4570312,-0.3164062 0.8671872,-0.5976562 0.8671872,-1.125 0,-0.6445312 -0.5976559,-0.9960937 -1.3124997,-0.9960937 -0.6679687,0 -1.1601562,0.3867187 -1.1601562,0.8789062 0,0.2578125 0.2109375,0.3046875 0.28125,0.3046875 0.140625,0 0.2929687,-0.09375 0.2929687,-0.2929687 0,-0.1875 -0.1289062,-0.28125 -0.28125,-0.2929688 0.140625,-0.234375 0.4335938,-0.375 0.7617188,-0.375 0.4804687,0 0.8906254,0.28125 0.8906254,0.7734375 0,0.421875 -0.2929692,0.7382813 -0.6796879,1.0546875 l -1.2070313,1.03125 c -0.046875,0.046875 -0.058594,0.046875 -0.058594,0.082031 v 0.1523437 h 2.3085942 z m 0,0"
         style="fill:#000000;fill-opacity:1;fill-rule:nonzero;stroke:none" />
    </g>
    <path
       id="path13"
       d="M 0,0 H 36.613"
       style="fill:none;stroke:#000000;stroke-width:0.398;stroke-linecap:butt;stroke-linejoin:miter;stroke-miterlimit:10;stroke-dasharray:none;stroke-opacity:1"
       transform="matrix(1.3333333,0,0,-1.3333333,383.09067,204.32133)" />
    <path
       id="path14"
       d="M 3.8793594,8.5181719 2.1215469,4.6392656 C 2.0512344,4.4869219 2.0043594,4.4869219 1.9692031,4.4869219 c -0.011719,0 -0.058594,0 -0.1640625,0.070312 l -0.94921872,0.726563 c -0.12890625,0.09375 -0.12890625,0.1289062 -0.12890625,0.1523437 0,0.046875 0.0351563,0.1054688 0.10546875,0.1054688 0.0585938,0 0.22265622,-0.1289063 0.32812502,-0.2109375 0.070312,-0.046875 0.2109375,-0.1640625 0.328125,-0.2460938 l 1.9570312,4.3125 c 0.070312,0.1640625 0.1171875,0.1640625 0.2109375,0.1640625 0.1523438,0 0.1757813,-0.058594 0.2460938,-0.1992187 l 4.5234375,-9.36328128 c 0.070312,-0.140625 0.070312,-0.17578125 0.070312,-0.19921875 0,-0.10546875 -0.082031,-0.19921875 -0.1992188,-0.19921875 -0.082031,0 -0.1523437,0.046875 -0.2226562,0.2109375 z m 0,0"
       style="fill:#000000;fill-opacity:1;fill-rule:nonzero;stroke:none"
       aria-label="√"
       transform="matrix(1.3333333,0,0,1.3333333,390.58533,207.244)" />
    <path
       id="path15"
       d="M 0,0 H 11.018"
       style="fill:none;stroke:#000000;stroke-width:0.398;stroke-linecap:butt;stroke-linejoin:miter;stroke-miterlimit:10;stroke-dasharray:none;stroke-opacity:1"
       transform="matrix(1.3333333,0,0,-1.3333333,401.65467,206.97867)" />
    <g
       id="g15"
       aria-label="2πσ"
       transform="matrix(1.3333333,0,0,1.3333333,401.65467,218.232)">
      <path
         id="path16"
         d="M 1.2668125,-0.76286719 2.3215,-1.7941172 c 1.5585938,-1.3710937 2.15625,-1.9101562 2.15625,-2.90625 0,-1.1367187 -0.9023437,-1.9335937 -2.1210937,-1.9335937 -1.125,0 -1.85156255,0.9140625 -1.85156255,1.8046875 0,0.5507812 0.4921875,0.5507812 0.52734375,0.5507812 0.1640625,0 0.515625,-0.1171875 0.515625,-0.5273437 0,-0.2578125 -0.1875,-0.515625 -0.5273437,-0.515625 -0.0820313,0 -0.1054688,0 -0.1289063,0.011719 0.2226563,-0.6445312 0.7617188,-1.0195312 1.3359375,-1.0195312 0.9140625,0 1.3359375,0.8085937 1.3359375,1.6289062 0,0.796875 -0.4921875,1.5820313 -1.0429687,2.203125 L 0.6105625,-0.36442969 C 0.50509375,-0.25896094 0.50509375,-0.23552344 0.50509375,-0.00114844 H 4.1965 L 4.47775,-1.7355234 H 4.2199375 C 4.1730625,-1.4308359 4.10275,-0.99724219 4.009,-0.84489844 c -0.070313,0.0820313 -0.7265625,0.0820313 -0.9492187,0.0820313 z m 0,0"
         style="fill:#000000;fill-opacity:1;fill-rule:nonzero;stroke:none" />
      <path
         id="path17"
         d="m 7.618375,-3.7159922 h 1.125 c -0.328125,1.4765625 -0.4101562,1.8984375 -0.4101562,2.5664063 0,0.15234371 0,0.42187496 0.070312,0.76171871 0.1054687,0.43359375 0.2109375,0.4921875 0.3632812,0.4921875 0.1992188,0 0.4101563,-0.17578125 0.4101563,-0.375 0,-0.0585938 0,-0.0820313 -0.058594,-0.22265625 -0.292968,-0.71484376 -0.292968,-1.35937496 -0.292968,-1.64062496 0,-0.5273438 0.070312,-1.0664063 0.1757812,-1.5820313 h 1.1367185 c 0.128907,0 0.492188,0 0.492188,-0.3398437 0,-0.234375 -0.210938,-0.234375 -0.398438,-0.234375 H 6.8918125 c -0.2109375,0 -0.5976562,0 -1.03125,0.46875 -0.3515625,0.3867187 -0.609375,0.84375 -0.609375,0.890625 0,0.011719 0,0.1054687 0.1171875,0.1054687 0.082031,0 0.1054688,-0.046875 0.1640625,-0.1289062 0.4804688,-0.7617188 1.0664063,-0.7617188 1.265625,-0.7617188 h 0.5625 c -0.3164062,1.2070313 -0.8554687,2.4140625 -1.2773437,3.31640626 -0.070312,0.15234375 -0.070312,0.1640625 -0.070312,0.234375 0,0.19921875 0.1523437,0.26953125 0.28125,0.26953125 0.3046875,0 0.3867187,-0.26953125 0.5039062,-0.64453125 0.140625,-0.45703125 0.140625,-0.48046876 0.2695313,-0.97265626 z m 8.557617,0 c 0.128906,0 0.492188,0 0.492188,-0.3398437 0,-0.234375 -0.210938,-0.234375 -0.386719,-0.234375 h -2.273438 c -1.5,0 -2.613281,1.640625 -2.613281,2.8242187 0,0.87890626 0.585938,1.57031251 1.5,1.57031251 1.171875,0 2.496094,-1.20703121 2.496094,-2.73046871 0,-0.1757813 0,-0.65625 -0.304688,-1.0898438 z m -3.269531,3.60937501 c -0.492188,0 -0.890625,-0.36328125 -0.890625,-1.07812501 0,-0.3046875 0.117187,-1.1132812 0.46875,-1.7109375 0.421875,-0.6796875 1.019531,-0.8203125 1.359375,-0.8203125 0.832031,0 0.914062,0.65625 0.914062,0.9609375 0,0.46875 -0.199218,1.2890625 -0.539062,1.79296876 -0.386719,0.59765625 -0.925781,0.85546875 -1.3125,0.85546875 z m 0,0"
         style="fill:#000000;fill-opacity:1;fill-rule:nonzero;stroke:none" />
    </g>
  </g>
</svg>
